<?xml version="1.0" ?><svg id="Layer_1" style="enable-background:new 0 0 512 512;" version="1.1" viewBox="0 0 512 512" xml:space="preserve" xmlns="http://www.w3.org/2000/svg" xmlns:xlink="http://www.w3.org/1999/xlink"><style type="text/css">
	.st0{fill:#ED5565;}
	.st1{fill:#DA4453;}
	.st2{fill:#FC6E51;}
	.st3{fill:#E9573F;}
	.st4{fill:#FFCE54;}
	.st5{fill:#F6BB42;}
	.st6{fill:#A0D468;}
	.st7{fill:#8CC152;}
	.st8{fill:#48CFAD;}
	.st9{fill:#37BC9B;}
	.st10{fill:#4FC1E9;}
	.st11{fill:#3BAFDA;}
	.st12{fill:#5D9CEC;}
	.st13{fill:#4A89DC;}
	.st14{fill:#AC92EC;}
	.st15{fill:#967ADC;}
	.st16{fill:#EC87C0;}
	.st17{fill:#D770AD;}
	.st18{fill:#3A6F81;}
	.st19{fill:#745EC5;}
	.st20{fill:#FFFFFF;}
</style><circle class="st0" cx="-808" cy="-276" r="250"/><circle class="st1" cx="-276" cy="-276" r="250"/><circle class="st2" cx="256" cy="-276" r="250"/><circle class="st3" cx="788" cy="-276" r="250"/><circle class="st4" cx="1320" cy="-276" r="250"/><circle class="st5" cx="-808" cy="256" r="250"/><circle class="st6" cx="-276" cy="256" r="250"/><circle class="st7" cx="256" cy="256" r="250"/><circle class="st8" cx="788" cy="256" r="250"/><circle class="st9" cx="1320" cy="256" r="250"/><circle class="st10" cx="-808" cy="788" r="250"/><circle class="st11" cx="-276" cy="788" r="250"/><circle class="st12" cx="256" cy="788" r="250"/><circle class="st13" cx="788" cy="788" r="250"/><circle class="st14" cx="1320" cy="788" r="250"/><circle class="st15" cx="-808" cy="1320" r="250"/><circle class="st16" cx="-276" cy="1320" r="250"/><circle class="st17" cx="256" cy="1320" r="250"/><circle class="st18" cx="788" cy="1320" r="250"/><circle class="st19" cx="1320" cy="1320" r="250"/><g id="XMLID_159_"><g id="XMLID_65_"><path class="st20" d="M1402.7,304.5h-165.3c-10.7,0-19.3,8.6-19.3,19.3v48.7h203.8v-48.7    C1421.9,313.1,1413.3,304.5,1402.7,304.5z" id="XMLID_181_"/><path class="st20" d="M1402.7,253.8c0-10.7-8.6-19.3-19.3-19.3h-126.9c-10.7,0-19.3,8.6-19.3,19.3v35.9h165.5    L1402.7,253.8L1402.7,253.8z" id="XMLID_188_"/></g><line class="st20" id="XMLID_66_" x1="1286" x2="1286" y1="160.1" y2="181.4"/><line class="st20" id="XMLID_68_" x1="1354" x2="1354" y1="160.1" y2="181.4"/><path class="st20" d="M1281.3,139.2l4.7-8.2l4.7,8.2c2.1,3.6-0.5,8.2-4.7,8.2l0,0   C1281.8,147.4,1279.2,142.8,1281.3,139.2z" id="XMLID_71_"/><path class="st20" d="M1315.3,139.2l4.7-8.2l4.7,8.2c2.1,3.6-0.5,8.2-4.7,8.2l0,0   C1315.8,147.4,1313.2,142.8,1315.3,139.2z" id="XMLID_73_"/><path class="st20" d="M1349.3,139.2l4.7-8.2l4.7,8.2c2.1,3.6-0.5,8.2-4.7,8.2l0,0   C1349.8,147.4,1347.2,142.8,1349.3,139.2z" id="XMLID_74_"/><path class="st20" d="M1377.9,194.7c0-7.4-6-13.5-13.5-13.5h-88.8c-7.4,0-13.5,6-13.5,13.5v25.1h115.7V194.7z" id="XMLID_139_"/></g><path class="st20" d="M318.2,1309h-5.7c-3-15.8-12.2-29.4-25-38.1l1.4,0.4l-8.3-61.6c0-8.1-6.6-14.7-14.7-14.7h-27.1  c-8.1,0-14.7,6.6-14.7,14.7l-5.5,61.6l1.8-0.5c-15.8,10.7-26.2,28.9-26.2,49.4c0,20,10,37.8,25.1,48.6l-0.7-0.2l5.5,61.6  c0,8.1,6.6,14.7,14.7,14.7H266c8.1,0,14.7-6.6,14.7-14.7l8.3-61.6l-0.3,0.1c12.3-8.9,21.1-22.2,24-37.6h5.6c2.9,0,5.2-2.3,5.2-5.2  v-11.7C323.4,1311.3,321.2,1309,318.2,1309z M253.9,1376c-30.8,0-55.8-25-55.8-55.8s25-55.8,55.8-55.8s55.8,25,55.8,55.8  C309.7,1351,284.7,1376,253.9,1376z"/><path class="st20" d="M268.5-184.3L268.5-184.3L268.5-184.3L268.5-184.3z M340.4-184.3L340.4-184.3L340.4-184.3L340.4-184.3z   M330.7-194.1L330.7-194.1L330.7-194.1L330.7-194.1z"/><g id="XMLID_280_"><ellipse class="st20" cx="-233.1" cy="-187" id="XMLID_281_" rx="8.2" ry="8.2"/><ellipse class="st20" cx="-300.4" cy="-187" id="XMLID_508_" rx="8.2" ry="8.2"/><path class="st20" d="M-233.1-206.4c-10.6,0-19.2,8.7-19.2,19.3c0,10.7,8.6,19.3,19.2,19.3   c10.6,0,19.2-8.7,19.2-19.3C-213.8-197.7-222.5-206.4-233.1-206.4z M-233.1-178.8c-4.5,0-8.2-3.7-8.2-8.2c0-4.6,3.7-8.2,8.2-8.2   c4.6,0,8.2,3.7,8.2,8.2C-224.9-182.5-228.5-178.8-233.1-178.8z" id="XMLID_580_"/><path class="st20" d="M-300.4-206.4c-10.6,0-19.2,8.7-19.2,19.3c0,10.7,8.6,19.3,19.2,19.3   c10.6,0,19.2-8.7,19.2-19.3S-289.7-206.4-300.4-206.4z M-300.4-178.8c-4.5,0-8.2-3.7-8.2-8.2c0-4.6,3.7-8.2,8.2-8.2   c4.5,0,8.2,3.7,8.2,8.2C-292.2-182.5-295.9-178.8-300.4-178.8z" id="XMLID_583_"/><path class="st20" d="M-344.7-332.6l-13.1-40.5l-0.5,0.2v-0.8H-421v19.3h48.9l15,40.5l32.3,97.4h115.4l38.5-116.7   L-344.7-332.6z M-253.4-275.2l-3.5,4.4l-12.9,16.1l-12.9-16.1l-3.5-4.4c-3.5-4.4-3.5-11.6,0-16.1l0,0c3.5-4.4,9.3-4.4,12.9,0   l3.5,4.4l3.5-4.4c3.5-4.4,9.3-4.4,12.9,0l0,0C-249.9-286.9-249.9-279.7-253.4-275.2z" id="XMLID_586_"/></g><g id="XMLID_1_"><ellipse class="st20" cx="298.9" cy="339.7" id="XMLID_6_" rx="8.2" ry="8.2"/><ellipse class="st20" cx="231.7" cy="339.7" id="XMLID_5_" rx="8.2" ry="8.2"/><path class="st20" d="M298.9,320.3c-10.6,0-19.2,8.7-19.2,19.3c0,10.7,8.6,19.3,19.2,19.3c10.6,0,19.2-8.7,19.2-19.3   C318.2,329,309.6,320.3,298.9,320.3z M298.9,347.9c-4.5,0-8.2-3.7-8.2-8.2c0-4.6,3.7-8.2,8.2-8.2c4.6,0,8.2,3.7,8.2,8.2   S303.5,347.9,298.9,347.9z" id="XMLID_4_"/><path class="st20" d="M231.7,320.3c-10.6,0-19.2,8.7-19.2,19.3c0,10.7,8.6,19.3,19.2,19.3c10.6,0,19.2-8.7,19.2-19.3   S242.3,320.3,231.7,320.3z M231.7,347.9c-4.5,0-8.2-3.7-8.2-8.2c0-4.6,3.7-8.2,8.2-8.2c4.5,0,8.2,3.7,8.2,8.2   S236.2,347.9,231.7,347.9z" id="XMLID_3_"/><path class="st20" d="M187.4,194.1l-13.1-40.5l-0.5,0.2V153H111v19.3h48.9l15,40.5l32.3,97.4h115.4L361,193.6   L187.4,194.1z" id="XMLID_2_"/></g></svg>