<?xml version="1.0" ?><svg height="210mm" id="svg6336" version="1.1" viewBox="0 0 210 210" width="210mm" xmlns="http://www.w3.org/2000/svg" xmlns:cc="http://creativecommons.org/ns#" xmlns:dc="http://purl.org/dc/elements/1.1/" xmlns:rdf="http://www.w3.org/1999/02/22-rdf-syntax-ns#" xmlns:svg="http://www.w3.org/2000/svg"><defs id="defs6330"/><path d="M 66.886719 22.435547 C 43.330805 22.435547 24.367188 41.399168 24.367188 64.955078 L 24.367188 727.4668 C 24.367188 751.0227 43.330805 769.98633 66.886719 769.98633 L 400.4082 769.98633 L 729.39844 769.98633 C 752.95434 769.98633 771.91797 751.0227 771.91797 727.4668 L 771.91797 64.955078 C 771.91797 41.399168 752.95434 22.435547 729.39844 22.435547 L 400.4082 22.435547 L 66.886719 22.435547 z " id="rect6883" style="opacity:1;fill:#ffffff;fill-opacity:1;fill-rule:nonzero;stroke:none;stroke-width:1.00157475;stroke-linecap:round;stroke-linejoin:round;stroke-miterlimit:4;stroke-dasharray:none;stroke-dashoffset:0;stroke-opacity:1" transform="scale(0.26458333)"/><path d="m 105.38891,66.555436 -11.040148,19.085658 -17.606161,0.01395 -4.584216,0.0041 11.089762,19.171446 -11.089762,19.17195 4.584216,0.004 17.606161,0.0145 11.040148,19.08514 10.98796,-19.06706 22.14852,0.0181 -11.07942,-19.2257 11.07942,-19.225183 -22.148,0.01757 z m -0.01,10.583849 4.89272,8.489405 -9.80767,0.0078 z m 23.98458,13.766087 -4.97127,8.62635 -4.96663,-8.61808 z m -16.04347,0.0129 8.01812,13.912838 -8.01812,13.91337 -15.918405,-0.0124 -8.040336,-13.90044 8.040336,-13.900438 z m -22.03431,0.0176 -4.981091,8.61136 -4.976442,-8.60309 z m -4.980575,19.179708 4.98161,8.61187 -9.958568,-0.008 z m 38.087085,0.015 4.97127,8.62635 -9.9379,-0.008 z m -23.92878,13.89579 9.80819,0.008 -4.89272,8.48992 z" id="path4761" style="color:#000000;font-style:normal;font-variant:normal;font-weight:normal;font-stretch:normal;font-size:medium;line-height:normal;font-family:sans-serif;font-variant-ligatures:normal;font-variant-position:normal;font-variant-caps:normal;font-variant-numeric:normal;font-variant-alternates:normal;font-feature-settings:normal;text-indent:0;text-align:start;text-decoration:none;text-decoration-line:none;text-decoration-style:solid;text-decoration-color:#000000;letter-spacing:normal;word-spacing:normal;text-transform:none;writing-mode:lr-tb;direction:ltr;text-orientation:mixed;dominant-baseline:auto;baseline-shift:baseline;text-anchor:start;white-space:normal;shape-padding:0;clip-rule:nonzero;display:inline;overflow:visible;visibility:visible;opacity:1;isolation:auto;mix-blend-mode:normal;color-interpolation:sRGB;color-interpolation-filters:linearRGB;solid-color:#000000;solid-opacity:1;vector-effect:none;fill:#0038b8;fill-opacity:1;fill-rule:nonzero;stroke:none;stroke-width:5.29166651;stroke-linecap:butt;stroke-linejoin:miter;stroke-miterlimit:4;stroke-dasharray:none;stroke-dashoffset:0;stroke-opacity:1;paint-order:markers fill stroke;color-rendering:auto;image-rendering:auto;shape-rendering:auto;text-rendering:auto;enable-background:accumulate"/><path d="M 66.886719 22.435547 C 43.330805 22.435547 24.367188 41.399168 24.367188 64.955078 L 24.367188 182.87891 L 771.91797 182.87891 L 771.91797 64.955078 C 771.91797 41.399168 752.95434 22.435547 729.39844 22.435547 L 400.4082 22.435547 L 66.886719 22.435547 z " id="rect4772" style="opacity:1;fill:#0038b8;fill-opacity:1;fill-rule:nonzero;stroke:none;stroke-width:20;stroke-linecap:butt;stroke-linejoin:miter;stroke-miterlimit:4;stroke-dasharray:none;stroke-dashoffset:0;stroke-opacity:1;paint-order:markers fill stroke" transform="scale(0.26458333)"/><path d="m 17.69711,203.72555 c -6.232502,0 -11.2499598,-5.01746 -11.2499598,-11.24996 V 161.27491 H 204.23663 v 31.20068 c 0,6.2325 -5.01746,11.24996 -11.24996,11.24996 h -87.04534 z" id="path4777" style="opacity:1;fill:#0038b8;fill-opacity:1;fill-rule:nonzero;stroke:none;stroke-width:5.29166651;stroke-linecap:butt;stroke-linejoin:miter;stroke-miterlimit:4;stroke-dasharray:none;stroke-dashoffset:0;stroke-opacity:1;paint-order:markers fill stroke"/></svg>